<svg width="21" height="20" viewBox="0 0 21 20" fill="none" xmlns="http://www.w3.org/2000/svg">
<path d="M10.492 1.66669C5.89199 1.66669 2.16699 5.40002 2.16699 10C2.16699 14.6 5.89199 18.3334 10.492 18.3334C15.1003 18.3334 18.8337 14.6 18.8337 10C18.8337 5.40002 15.1003 1.66669 10.492 1.66669ZM10.5003 16.6667C6.81699 16.6667 3.83366 13.6834 3.83366 10C3.83366 6.31669 6.81699 3.33335 10.5003 3.33335C14.1837 3.33335 17.167 6.31669 17.167 10C17.167 13.6834 14.1837 16.6667 10.5003 16.6667ZM10.917 5.83335H9.66699V10.8334L14.042 13.4584L14.667 12.4334L10.917 10.2084V5.83335Z" fill="#00409F"/>
</svg>
